<mxfile host="app.diagrams.net" modified="2024-07-06T16:19:00.660Z" agent="Mozilla/5.0 (Windows NT 10.0; Win64; x64) AppleWebKit/537.36 (KHTML, like Gecko) Chrome/126.0.0.0 Safari/537.36" etag="PB96cD4zC-STnVc2KBhA" version="24.6.4" type="device">
  <diagram id="C5RBs43oDa-KdzZeNtuy" name="Page-1">
    <mxGraphModel dx="2086" dy="662" grid="1" gridSize="10" guides="1" tooltips="1" connect="1" arrows="1" fold="1" page="1" pageScale="1" pageWidth="827" pageHeight="1169" math="0" shadow="0">
      <root>
        <mxCell id="WIyWlLk6GJQsqaUBKTNV-0" />
        <mxCell id="WIyWlLk6GJQsqaUBKTNV-1" parent="WIyWlLk6GJQsqaUBKTNV-0" />
        <mxCell id="eZ27SFT9c-3XRAADjgle-18" value="" style="edgeStyle=orthogonalEdgeStyle;rounded=0;orthogonalLoop=1;jettySize=auto;html=1;strokeWidth=1;" parent="WIyWlLk6GJQsqaUBKTNV-1" source="eZ27SFT9c-3XRAADjgle-0" target="eZ27SFT9c-3XRAADjgle-1" edge="1">
          <mxGeometry relative="1" as="geometry" />
        </mxCell>
        <mxCell id="eZ27SFT9c-3XRAADjgle-0" value="&lt;font style=&quot;font-size: 14px;&quot;&gt;Welcome page&lt;/font&gt;" style="rounded=1;whiteSpace=wrap;html=1;" parent="WIyWlLk6GJQsqaUBKTNV-1" vertex="1">
          <mxGeometry x="278" y="22.5" width="180" height="70" as="geometry" />
        </mxCell>
        <mxCell id="eZ27SFT9c-3XRAADjgle-35" value="" style="edgeStyle=orthogonalEdgeStyle;rounded=0;orthogonalLoop=1;jettySize=auto;html=1;strokeWidth=1;" parent="WIyWlLk6GJQsqaUBKTNV-1" source="eZ27SFT9c-3XRAADjgle-1" target="eZ27SFT9c-3XRAADjgle-26" edge="1">
          <mxGeometry relative="1" as="geometry" />
        </mxCell>
        <mxCell id="Ky1Bmg0oURjzRkFfr9oY-16" value="" style="edgeStyle=orthogonalEdgeStyle;rounded=0;orthogonalLoop=1;jettySize=auto;html=1;" edge="1" parent="WIyWlLk6GJQsqaUBKTNV-1" source="eZ27SFT9c-3XRAADjgle-1" target="eZ27SFT9c-3XRAADjgle-12">
          <mxGeometry relative="1" as="geometry" />
        </mxCell>
        <mxCell id="eZ27SFT9c-3XRAADjgle-1" value="&lt;font style=&quot;font-size: 14px;&quot;&gt;Login Page&lt;/font&gt;" style="rounded=1;whiteSpace=wrap;html=1;" parent="WIyWlLk6GJQsqaUBKTNV-1" vertex="1">
          <mxGeometry x="278" y="180" width="180" height="70" as="geometry" />
        </mxCell>
        <mxCell id="JdBe7RVcI7tT6JePGC-4-9" value="" style="edgeStyle=orthogonalEdgeStyle;rounded=0;orthogonalLoop=1;jettySize=auto;html=1;strokeWidth=1;" parent="WIyWlLk6GJQsqaUBKTNV-1" source="eZ27SFT9c-3XRAADjgle-2" target="JdBe7RVcI7tT6JePGC-4-1" edge="1">
          <mxGeometry relative="1" as="geometry" />
        </mxCell>
        <mxCell id="JdBe7RVcI7tT6JePGC-4-17" style="edgeStyle=orthogonalEdgeStyle;rounded=0;orthogonalLoop=1;jettySize=auto;html=1;exitX=0.75;exitY=0;exitDx=0;exitDy=0;entryX=0;entryY=0.5;entryDx=0;entryDy=0;strokeWidth=1;" parent="WIyWlLk6GJQsqaUBKTNV-1" source="eZ27SFT9c-3XRAADjgle-2" target="JdBe7RVcI7tT6JePGC-4-2" edge="1">
          <mxGeometry relative="1" as="geometry">
            <Array as="points">
              <mxPoint x="415" y="520" />
            </Array>
          </mxGeometry>
        </mxCell>
        <mxCell id="Ky1Bmg0oURjzRkFfr9oY-3" style="edgeStyle=orthogonalEdgeStyle;rounded=0;orthogonalLoop=1;jettySize=auto;html=1;" edge="1" parent="WIyWlLk6GJQsqaUBKTNV-1" source="eZ27SFT9c-3XRAADjgle-2" target="eZ27SFT9c-3XRAADjgle-4">
          <mxGeometry relative="1" as="geometry">
            <Array as="points">
              <mxPoint x="390" y="850" />
              <mxPoint x="470" y="850" />
            </Array>
          </mxGeometry>
        </mxCell>
        <mxCell id="Ky1Bmg0oURjzRkFfr9oY-4" style="edgeStyle=orthogonalEdgeStyle;rounded=0;orthogonalLoop=1;jettySize=auto;html=1;" edge="1" parent="WIyWlLk6GJQsqaUBKTNV-1" source="eZ27SFT9c-3XRAADjgle-2" target="eZ27SFT9c-3XRAADjgle-5">
          <mxGeometry relative="1" as="geometry">
            <Array as="points">
              <mxPoint x="360" y="850" />
              <mxPoint x="283" y="850" />
            </Array>
          </mxGeometry>
        </mxCell>
        <mxCell id="eZ27SFT9c-3XRAADjgle-2" value="&lt;font style=&quot;font-size: 14px;&quot;&gt;Explore Page&lt;/font&gt;" style="rounded=1;whiteSpace=wrap;html=1;" parent="WIyWlLk6GJQsqaUBKTNV-1" vertex="1">
          <mxGeometry x="280" y="620" width="180" height="70" as="geometry" />
        </mxCell>
        <mxCell id="JdBe7RVcI7tT6JePGC-4-52" style="edgeStyle=orthogonalEdgeStyle;rounded=0;orthogonalLoop=1;jettySize=auto;html=1;entryX=0.5;entryY=1;entryDx=0;entryDy=0;strokeWidth=1;" parent="WIyWlLk6GJQsqaUBKTNV-1" source="eZ27SFT9c-3XRAADjgle-3" target="eZ27SFT9c-3XRAADjgle-58" edge="1">
          <mxGeometry relative="1" as="geometry" />
        </mxCell>
        <mxCell id="eZ27SFT9c-3XRAADjgle-3" value="&lt;font style=&quot;font-size: 14px;&quot;&gt;Messages Page&lt;/font&gt;" style="rounded=1;whiteSpace=wrap;html=1;" parent="WIyWlLk6GJQsqaUBKTNV-1" vertex="1">
          <mxGeometry x="-162.5" y="835" width="180" height="70" as="geometry" />
        </mxCell>
        <mxCell id="JdBe7RVcI7tT6JePGC-4-49" value="" style="edgeStyle=orthogonalEdgeStyle;rounded=0;orthogonalLoop=1;jettySize=auto;html=1;strokeWidth=1;" parent="WIyWlLk6GJQsqaUBKTNV-1" source="eZ27SFT9c-3XRAADjgle-4" target="eZ27SFT9c-3XRAADjgle-55" edge="1">
          <mxGeometry relative="1" as="geometry" />
        </mxCell>
        <mxCell id="eZ27SFT9c-3XRAADjgle-4" value="&lt;span style=&quot;font-size: 14px;&quot;&gt;Profile Page&lt;/span&gt;" style="rounded=1;whiteSpace=wrap;html=1;" parent="WIyWlLk6GJQsqaUBKTNV-1" vertex="1">
          <mxGeometry x="380" y="930" width="180" height="70" as="geometry" />
        </mxCell>
        <mxCell id="JdBe7RVcI7tT6JePGC-4-50" value="" style="edgeStyle=orthogonalEdgeStyle;rounded=0;orthogonalLoop=1;jettySize=auto;html=1;strokeWidth=1;" parent="WIyWlLk6GJQsqaUBKTNV-1" source="eZ27SFT9c-3XRAADjgle-5" target="JdBe7RVcI7tT6JePGC-4-39" edge="1">
          <mxGeometry relative="1" as="geometry" />
        </mxCell>
        <mxCell id="eZ27SFT9c-3XRAADjgle-5" value="&lt;span style=&quot;font-size: 14px;&quot;&gt;Matches Page&lt;/span&gt;" style="rounded=1;whiteSpace=wrap;html=1;" parent="WIyWlLk6GJQsqaUBKTNV-1" vertex="1">
          <mxGeometry x="192.5" y="930" width="180" height="70" as="geometry" />
        </mxCell>
        <mxCell id="Ky1Bmg0oURjzRkFfr9oY-19" value="" style="edgeStyle=orthogonalEdgeStyle;rounded=0;orthogonalLoop=1;jettySize=auto;html=1;" edge="1" parent="WIyWlLk6GJQsqaUBKTNV-1" source="eZ27SFT9c-3XRAADjgle-12" target="eZ27SFT9c-3XRAADjgle-46">
          <mxGeometry relative="1" as="geometry" />
        </mxCell>
        <mxCell id="eZ27SFT9c-3XRAADjgle-12" value="&lt;font style=&quot;font-size: 14px;&quot;&gt;Registration Page&lt;/font&gt;" style="rounded=1;whiteSpace=wrap;html=1;" parent="WIyWlLk6GJQsqaUBKTNV-1" vertex="1">
          <mxGeometry x="38" y="180" width="180" height="70" as="geometry" />
        </mxCell>
        <mxCell id="JdBe7RVcI7tT6JePGC-4-56" value="" style="edgeStyle=orthogonalEdgeStyle;rounded=0;orthogonalLoop=1;jettySize=auto;html=1;strokeWidth=1;" parent="WIyWlLk6GJQsqaUBKTNV-1" source="eZ27SFT9c-3XRAADjgle-16" target="eZ27SFT9c-3XRAADjgle-0" edge="1">
          <mxGeometry relative="1" as="geometry" />
        </mxCell>
        <mxCell id="eZ27SFT9c-3XRAADjgle-16" value="Start" style="ellipse;whiteSpace=wrap;html=1;" parent="WIyWlLk6GJQsqaUBKTNV-1" vertex="1">
          <mxGeometry x="25.5" y="20" width="180" height="75" as="geometry" />
        </mxCell>
        <mxCell id="Ky1Bmg0oURjzRkFfr9oY-11" value="" style="edgeStyle=orthogonalEdgeStyle;rounded=0;orthogonalLoop=1;jettySize=auto;html=1;" edge="1" parent="WIyWlLk6GJQsqaUBKTNV-1" source="eZ27SFT9c-3XRAADjgle-19" target="Ky1Bmg0oURjzRkFfr9oY-8">
          <mxGeometry relative="1" as="geometry" />
        </mxCell>
        <mxCell id="Ky1Bmg0oURjzRkFfr9oY-13" value="No" style="edgeLabel;html=1;align=center;verticalAlign=middle;resizable=0;points=[];" vertex="1" connectable="0" parent="Ky1Bmg0oURjzRkFfr9oY-11">
          <mxGeometry x="-0.2551" y="-2" relative="1" as="geometry">
            <mxPoint as="offset" />
          </mxGeometry>
        </mxCell>
        <mxCell id="Ky1Bmg0oURjzRkFfr9oY-31" style="edgeStyle=orthogonalEdgeStyle;rounded=0;orthogonalLoop=1;jettySize=auto;html=1;exitX=0.5;exitY=1;exitDx=0;exitDy=0;entryX=0.25;entryY=0;entryDx=0;entryDy=0;" edge="1" parent="WIyWlLk6GJQsqaUBKTNV-1" source="eZ27SFT9c-3XRAADjgle-19" target="eZ27SFT9c-3XRAADjgle-2">
          <mxGeometry relative="1" as="geometry">
            <Array as="points">
              <mxPoint x="573" y="460" />
              <mxPoint x="325" y="460" />
            </Array>
          </mxGeometry>
        </mxCell>
        <mxCell id="Ky1Bmg0oURjzRkFfr9oY-32" value="Yes" style="edgeLabel;html=1;align=center;verticalAlign=middle;resizable=0;points=[];" vertex="1" connectable="0" parent="Ky1Bmg0oURjzRkFfr9oY-31">
          <mxGeometry x="-0.9489" y="-1" relative="1" as="geometry">
            <mxPoint as="offset" />
          </mxGeometry>
        </mxCell>
        <mxCell id="eZ27SFT9c-3XRAADjgle-19" value="Valid Login Info?" style="rhombus;whiteSpace=wrap;html=1;" parent="WIyWlLk6GJQsqaUBKTNV-1" vertex="1">
          <mxGeometry x="500" y="290" width="145" height="140" as="geometry" />
        </mxCell>
        <mxCell id="Ky1Bmg0oURjzRkFfr9oY-15" value="" style="edgeStyle=orthogonalEdgeStyle;rounded=0;orthogonalLoop=1;jettySize=auto;html=1;" edge="1" parent="WIyWlLk6GJQsqaUBKTNV-1" source="eZ27SFT9c-3XRAADjgle-26" target="eZ27SFT9c-3XRAADjgle-34">
          <mxGeometry relative="1" as="geometry" />
        </mxCell>
        <mxCell id="eZ27SFT9c-3XRAADjgle-26" value="User Inputs login&lt;div&gt;info&lt;/div&gt;" style="shape=parallelogram;perimeter=parallelogramPerimeter;whiteSpace=wrap;html=1;fixedSize=1;" parent="WIyWlLk6GJQsqaUBKTNV-1" vertex="1">
          <mxGeometry x="640" y="185" width="195" height="60" as="geometry" />
        </mxCell>
        <mxCell id="eZ27SFT9c-3XRAADjgle-36" style="edgeStyle=orthogonalEdgeStyle;rounded=0;orthogonalLoop=1;jettySize=auto;html=1;entryX=1;entryY=0.5;entryDx=0;entryDy=0;strokeWidth=1;" parent="WIyWlLk6GJQsqaUBKTNV-1" source="eZ27SFT9c-3XRAADjgle-34" target="eZ27SFT9c-3XRAADjgle-19" edge="1">
          <mxGeometry relative="1" as="geometry" />
        </mxCell>
        <mxCell id="eZ27SFT9c-3XRAADjgle-34" value="Check Database&lt;div&gt;For login info&lt;/div&gt;" style="shape=cylinder3;whiteSpace=wrap;html=1;boundedLbl=1;backgroundOutline=1;size=15;" parent="WIyWlLk6GJQsqaUBKTNV-1" vertex="1">
          <mxGeometry x="682.5" y="305" width="110" height="110" as="geometry" />
        </mxCell>
        <mxCell id="Ky1Bmg0oURjzRkFfr9oY-22" value="" style="edgeStyle=orthogonalEdgeStyle;rounded=0;orthogonalLoop=1;jettySize=auto;html=1;" edge="1" parent="WIyWlLk6GJQsqaUBKTNV-1" source="eZ27SFT9c-3XRAADjgle-46" target="eZ27SFT9c-3XRAADjgle-48">
          <mxGeometry relative="1" as="geometry" />
        </mxCell>
        <mxCell id="eZ27SFT9c-3XRAADjgle-46" value="User Inputs info like username&lt;div&gt;password etc&lt;/div&gt;" style="shape=parallelogram;perimeter=parallelogramPerimeter;whiteSpace=wrap;html=1;fixedSize=1;" parent="WIyWlLk6GJQsqaUBKTNV-1" vertex="1">
          <mxGeometry x="-220" y="185" width="195" height="60" as="geometry" />
        </mxCell>
        <mxCell id="Ky1Bmg0oURjzRkFfr9oY-25" style="edgeStyle=orthogonalEdgeStyle;rounded=0;orthogonalLoop=1;jettySize=auto;html=1;entryX=0;entryY=0.5;entryDx=0;entryDy=0;" edge="1" parent="WIyWlLk6GJQsqaUBKTNV-1" source="eZ27SFT9c-3XRAADjgle-48" target="Ky1Bmg0oURjzRkFfr9oY-18">
          <mxGeometry relative="1" as="geometry">
            <Array as="points">
              <mxPoint x="-122" y="515" />
            </Array>
          </mxGeometry>
        </mxCell>
        <mxCell id="Ky1Bmg0oURjzRkFfr9oY-29" value="Yes" style="edgeLabel;html=1;align=center;verticalAlign=middle;resizable=0;points=[];" vertex="1" connectable="0" parent="Ky1Bmg0oURjzRkFfr9oY-25">
          <mxGeometry x="-0.7208" y="1" relative="1" as="geometry">
            <mxPoint as="offset" />
          </mxGeometry>
        </mxCell>
        <mxCell id="Ky1Bmg0oURjzRkFfr9oY-26" value="" style="edgeStyle=orthogonalEdgeStyle;rounded=0;orthogonalLoop=1;jettySize=auto;html=1;" edge="1" parent="WIyWlLk6GJQsqaUBKTNV-1" source="eZ27SFT9c-3XRAADjgle-48" target="Ky1Bmg0oURjzRkFfr9oY-17">
          <mxGeometry relative="1" as="geometry" />
        </mxCell>
        <mxCell id="Ky1Bmg0oURjzRkFfr9oY-30" value="No" style="edgeLabel;html=1;align=center;verticalAlign=middle;resizable=0;points=[];" vertex="1" connectable="0" parent="Ky1Bmg0oURjzRkFfr9oY-26">
          <mxGeometry x="-0.103" y="3" relative="1" as="geometry">
            <mxPoint as="offset" />
          </mxGeometry>
        </mxCell>
        <mxCell id="eZ27SFT9c-3XRAADjgle-48" value="Meet requirements&lt;div&gt;such as being 18+&lt;/div&gt;" style="rhombus;whiteSpace=wrap;html=1;" parent="WIyWlLk6GJQsqaUBKTNV-1" vertex="1">
          <mxGeometry x="-195" y="290" width="145" height="140" as="geometry" />
        </mxCell>
        <mxCell id="eZ27SFT9c-3XRAADjgle-55" value="Logout" style="ellipse;whiteSpace=wrap;html=1;" parent="WIyWlLk6GJQsqaUBKTNV-1" vertex="1">
          <mxGeometry x="640" y="927.5" width="180" height="75" as="geometry" />
        </mxCell>
        <mxCell id="JdBe7RVcI7tT6JePGC-4-53" value="" style="edgeStyle=orthogonalEdgeStyle;rounded=0;orthogonalLoop=1;jettySize=auto;html=1;strokeWidth=1;" parent="WIyWlLk6GJQsqaUBKTNV-1" source="eZ27SFT9c-3XRAADjgle-58" target="JdBe7RVcI7tT6JePGC-4-35" edge="1">
          <mxGeometry relative="1" as="geometry" />
        </mxCell>
        <mxCell id="eZ27SFT9c-3XRAADjgle-58" value="Users messages match" style="shape=parallelogram;perimeter=parallelogramPerimeter;whiteSpace=wrap;html=1;fixedSize=1;" parent="WIyWlLk6GJQsqaUBKTNV-1" vertex="1">
          <mxGeometry x="-170" y="710" width="195" height="60" as="geometry" />
        </mxCell>
        <mxCell id="JdBe7RVcI7tT6JePGC-4-11" value="" style="edgeStyle=orthogonalEdgeStyle;rounded=0;orthogonalLoop=1;jettySize=auto;html=1;strokeWidth=1;" parent="WIyWlLk6GJQsqaUBKTNV-1" source="JdBe7RVcI7tT6JePGC-4-1" target="JdBe7RVcI7tT6JePGC-4-10" edge="1">
          <mxGeometry relative="1" as="geometry" />
        </mxCell>
        <mxCell id="JdBe7RVcI7tT6JePGC-4-1" value="Users press X&lt;div&gt;(Not match)&lt;/div&gt;" style="shape=parallelogram;perimeter=parallelogramPerimeter;whiteSpace=wrap;html=1;fixedSize=1;" parent="WIyWlLk6GJQsqaUBKTNV-1" vertex="1">
          <mxGeometry x="50" y="625" width="195" height="60" as="geometry" />
        </mxCell>
        <mxCell id="JdBe7RVcI7tT6JePGC-4-20" value="" style="edgeStyle=orthogonalEdgeStyle;rounded=0;orthogonalLoop=1;jettySize=auto;html=1;strokeWidth=1;" parent="WIyWlLk6GJQsqaUBKTNV-1" source="JdBe7RVcI7tT6JePGC-4-2" target="JdBe7RVcI7tT6JePGC-4-6" edge="1">
          <mxGeometry relative="1" as="geometry" />
        </mxCell>
        <mxCell id="JdBe7RVcI7tT6JePGC-4-2" value="Users press Check&lt;div&gt;(Potential Match)&lt;/div&gt;" style="shape=parallelogram;perimeter=parallelogramPerimeter;whiteSpace=wrap;html=1;fixedSize=1;" parent="WIyWlLk6GJQsqaUBKTNV-1" vertex="1">
          <mxGeometry x="460" y="490" width="195" height="60" as="geometry" />
        </mxCell>
        <mxCell id="JdBe7RVcI7tT6JePGC-4-19" value="" style="edgeStyle=orthogonalEdgeStyle;rounded=0;orthogonalLoop=1;jettySize=auto;html=1;strokeWidth=1;" parent="WIyWlLk6GJQsqaUBKTNV-1" source="JdBe7RVcI7tT6JePGC-4-6" target="JdBe7RVcI7tT6JePGC-4-18" edge="1">
          <mxGeometry relative="1" as="geometry" />
        </mxCell>
        <mxCell id="JdBe7RVcI7tT6JePGC-4-6" value="Pull Match info" style="shape=cylinder3;whiteSpace=wrap;html=1;boundedLbl=1;backgroundOutline=1;size=15;" parent="WIyWlLk6GJQsqaUBKTNV-1" vertex="1">
          <mxGeometry x="705.5" y="440" width="110" height="110" as="geometry" />
        </mxCell>
        <mxCell id="JdBe7RVcI7tT6JePGC-4-12" style="edgeStyle=orthogonalEdgeStyle;rounded=0;orthogonalLoop=1;jettySize=auto;html=1;entryX=0.25;entryY=1;entryDx=0;entryDy=0;strokeWidth=1;" parent="WIyWlLk6GJQsqaUBKTNV-1" source="JdBe7RVcI7tT6JePGC-4-10" target="eZ27SFT9c-3XRAADjgle-2" edge="1">
          <mxGeometry relative="1" as="geometry" />
        </mxCell>
        <mxCell id="JdBe7RVcI7tT6JePGC-4-10" value="Pull next person" style="shape=cylinder3;whiteSpace=wrap;html=1;boundedLbl=1;backgroundOutline=1;size=15;" parent="WIyWlLk6GJQsqaUBKTNV-1" vertex="1">
          <mxGeometry x="92.5" y="750" width="110" height="110" as="geometry" />
        </mxCell>
        <mxCell id="JdBe7RVcI7tT6JePGC-4-27" value="" style="edgeStyle=orthogonalEdgeStyle;rounded=0;orthogonalLoop=1;jettySize=auto;html=1;strokeWidth=1;" parent="WIyWlLk6GJQsqaUBKTNV-1" source="JdBe7RVcI7tT6JePGC-4-18" target="JdBe7RVcI7tT6JePGC-4-25" edge="1">
          <mxGeometry relative="1" as="geometry" />
        </mxCell>
        <mxCell id="JdBe7RVcI7tT6JePGC-4-28" value="No" style="edgeLabel;html=1;align=center;verticalAlign=middle;resizable=0;points=[];" parent="JdBe7RVcI7tT6JePGC-4-27" vertex="1" connectable="0">
          <mxGeometry x="-0.5391" relative="1" as="geometry">
            <mxPoint as="offset" />
          </mxGeometry>
        </mxCell>
        <mxCell id="JdBe7RVcI7tT6JePGC-4-43" value="" style="edgeStyle=orthogonalEdgeStyle;rounded=0;orthogonalLoop=1;jettySize=auto;html=1;strokeWidth=1;" parent="WIyWlLk6GJQsqaUBKTNV-1" source="JdBe7RVcI7tT6JePGC-4-18" target="JdBe7RVcI7tT6JePGC-4-42" edge="1">
          <mxGeometry relative="1" as="geometry" />
        </mxCell>
        <mxCell id="JdBe7RVcI7tT6JePGC-4-44" value="Yes" style="edgeLabel;html=1;align=center;verticalAlign=middle;resizable=0;points=[];" parent="JdBe7RVcI7tT6JePGC-4-43" vertex="1" connectable="0">
          <mxGeometry x="-0.5611" relative="1" as="geometry">
            <mxPoint as="offset" />
          </mxGeometry>
        </mxCell>
        <mxCell id="JdBe7RVcI7tT6JePGC-4-18" value="Is it a Match" style="rhombus;whiteSpace=wrap;html=1;" parent="WIyWlLk6GJQsqaUBKTNV-1" vertex="1">
          <mxGeometry x="688" y="585" width="145" height="140" as="geometry" />
        </mxCell>
        <mxCell id="JdBe7RVcI7tT6JePGC-4-26" value="" style="edgeStyle=orthogonalEdgeStyle;rounded=0;orthogonalLoop=1;jettySize=auto;html=1;strokeWidth=1;" parent="WIyWlLk6GJQsqaUBKTNV-1" source="JdBe7RVcI7tT6JePGC-4-25" target="eZ27SFT9c-3XRAADjgle-2" edge="1">
          <mxGeometry relative="1" as="geometry" />
        </mxCell>
        <mxCell id="JdBe7RVcI7tT6JePGC-4-25" value="Pull next person" style="shape=cylinder3;whiteSpace=wrap;html=1;boundedLbl=1;backgroundOutline=1;size=15;" parent="WIyWlLk6GJQsqaUBKTNV-1" vertex="1">
          <mxGeometry x="510" y="600" width="110" height="110" as="geometry" />
        </mxCell>
        <mxCell id="JdBe7RVcI7tT6JePGC-4-29" value="Add match to database" style="shape=cylinder3;whiteSpace=wrap;html=1;boundedLbl=1;backgroundOutline=1;size=15;" parent="WIyWlLk6GJQsqaUBKTNV-1" vertex="1">
          <mxGeometry x="510" y="770" width="110" height="110" as="geometry" />
        </mxCell>
        <mxCell id="JdBe7RVcI7tT6JePGC-4-33" style="edgeStyle=orthogonalEdgeStyle;rounded=0;orthogonalLoop=1;jettySize=auto;html=1;exitX=0.5;exitY=0;exitDx=0;exitDy=0;exitPerimeter=0;entryX=0.5;entryY=1;entryDx=0;entryDy=0;entryPerimeter=0;strokeWidth=1;" parent="WIyWlLk6GJQsqaUBKTNV-1" source="JdBe7RVcI7tT6JePGC-4-29" target="JdBe7RVcI7tT6JePGC-4-25" edge="1">
          <mxGeometry relative="1" as="geometry" />
        </mxCell>
        <mxCell id="JdBe7RVcI7tT6JePGC-4-54" style="edgeStyle=orthogonalEdgeStyle;rounded=0;orthogonalLoop=1;jettySize=auto;html=1;entryX=0;entryY=0.5;entryDx=0;entryDy=0;strokeWidth=1;" parent="WIyWlLk6GJQsqaUBKTNV-1" source="JdBe7RVcI7tT6JePGC-4-35" target="eZ27SFT9c-3XRAADjgle-3" edge="1">
          <mxGeometry relative="1" as="geometry">
            <Array as="points">
              <mxPoint x="-200" y="595" />
              <mxPoint x="-200" y="870" />
            </Array>
          </mxGeometry>
        </mxCell>
        <mxCell id="JdBe7RVcI7tT6JePGC-4-35" value="Add message to database" style="shape=cylinder3;whiteSpace=wrap;html=1;boundedLbl=1;backgroundOutline=1;size=15;" parent="WIyWlLk6GJQsqaUBKTNV-1" vertex="1">
          <mxGeometry x="-127.5" y="540" width="110" height="110" as="geometry" />
        </mxCell>
        <mxCell id="JdBe7RVcI7tT6JePGC-4-55" style="edgeStyle=orthogonalEdgeStyle;rounded=0;orthogonalLoop=1;jettySize=auto;html=1;entryX=0.5;entryY=1;entryDx=0;entryDy=0;strokeWidth=1;" parent="WIyWlLk6GJQsqaUBKTNV-1" source="JdBe7RVcI7tT6JePGC-4-39" edge="1">
          <mxGeometry relative="1" as="geometry">
            <Array as="points">
              <mxPoint x="-39.5" y="960" />
            </Array>
            <mxPoint x="-40" y="905" as="targetPoint" />
          </mxGeometry>
        </mxCell>
        <mxCell id="JdBe7RVcI7tT6JePGC-4-39" value="Select a Match" style="shape=parallelogram;perimeter=parallelogramPerimeter;whiteSpace=wrap;html=1;fixedSize=1;" parent="WIyWlLk6GJQsqaUBKTNV-1" vertex="1">
          <mxGeometry x="-25" y="935" width="195" height="60" as="geometry" />
        </mxCell>
        <mxCell id="JdBe7RVcI7tT6JePGC-4-45" value="" style="edgeStyle=orthogonalEdgeStyle;rounded=0;orthogonalLoop=1;jettySize=auto;html=1;strokeWidth=1;" parent="WIyWlLk6GJQsqaUBKTNV-1" source="JdBe7RVcI7tT6JePGC-4-42" target="JdBe7RVcI7tT6JePGC-4-29" edge="1">
          <mxGeometry relative="1" as="geometry" />
        </mxCell>
        <mxCell id="JdBe7RVcI7tT6JePGC-4-42" value="&lt;font style=&quot;font-size: 14px;&quot;&gt;Tell them its a match&lt;/font&gt;" style="rounded=1;whiteSpace=wrap;html=1;" parent="WIyWlLk6GJQsqaUBKTNV-1" vertex="1">
          <mxGeometry x="670.5" y="790" width="180" height="70" as="geometry" />
        </mxCell>
        <mxCell id="Ky1Bmg0oURjzRkFfr9oY-14" style="edgeStyle=orthogonalEdgeStyle;rounded=0;orthogonalLoop=1;jettySize=auto;html=1;" edge="1" parent="WIyWlLk6GJQsqaUBKTNV-1" source="Ky1Bmg0oURjzRkFfr9oY-8" target="eZ27SFT9c-3XRAADjgle-1">
          <mxGeometry relative="1" as="geometry" />
        </mxCell>
        <mxCell id="Ky1Bmg0oURjzRkFfr9oY-8" value="&lt;font style=&quot;font-size: 14px;&quot;&gt;Failed Login Page&lt;/font&gt;" style="rounded=1;whiteSpace=wrap;html=1;" vertex="1" parent="WIyWlLk6GJQsqaUBKTNV-1">
          <mxGeometry x="278" y="325" width="180" height="70" as="geometry" />
        </mxCell>
        <mxCell id="Ky1Bmg0oURjzRkFfr9oY-27" style="edgeStyle=orthogonalEdgeStyle;rounded=0;orthogonalLoop=1;jettySize=auto;html=1;entryX=0.5;entryY=1;entryDx=0;entryDy=0;" edge="1" parent="WIyWlLk6GJQsqaUBKTNV-1" source="Ky1Bmg0oURjzRkFfr9oY-17" target="eZ27SFT9c-3XRAADjgle-12">
          <mxGeometry relative="1" as="geometry" />
        </mxCell>
        <mxCell id="Ky1Bmg0oURjzRkFfr9oY-17" value="&lt;font style=&quot;font-size: 14px;&quot;&gt;Failed Registration page&lt;/font&gt;" style="rounded=1;whiteSpace=wrap;html=1;" vertex="1" parent="WIyWlLk6GJQsqaUBKTNV-1">
          <mxGeometry x="38" y="325" width="180" height="70" as="geometry" />
        </mxCell>
        <mxCell id="Ky1Bmg0oURjzRkFfr9oY-28" style="edgeStyle=orthogonalEdgeStyle;rounded=0;orthogonalLoop=1;jettySize=auto;html=1;entryX=0.25;entryY=1;entryDx=0;entryDy=0;" edge="1" parent="WIyWlLk6GJQsqaUBKTNV-1" source="Ky1Bmg0oURjzRkFfr9oY-18" target="eZ27SFT9c-3XRAADjgle-1">
          <mxGeometry relative="1" as="geometry">
            <Array as="points">
              <mxPoint x="260" y="515" />
              <mxPoint x="260" y="290" />
              <mxPoint x="323" y="290" />
            </Array>
          </mxGeometry>
        </mxCell>
        <mxCell id="Ky1Bmg0oURjzRkFfr9oY-18" value="&lt;span style=&quot;font-size: 14px;&quot;&gt;Successful Registration Page&lt;/span&gt;" style="rounded=1;whiteSpace=wrap;html=1;" vertex="1" parent="WIyWlLk6GJQsqaUBKTNV-1">
          <mxGeometry x="38" y="480" width="180" height="70" as="geometry" />
        </mxCell>
      </root>
    </mxGraphModel>
  </diagram>
</mxfile>
